<?xml version="1.0" standalone="no"?><!DOCTYPE svg PUBLIC "-//W3C//DTD SVG 1.1//EN" "http://www.w3.org/Graphics/SVG/1.1/DTD/svg11.dtd"><svg t="1660982273769" class="icon" viewBox="0 0 1024 1024" version="1.1" xmlns="http://www.w3.org/2000/svg" p-id="1470" xmlns:xlink="http://www.w3.org/1999/xlink" width="300" height="300"><defs><style type="text/css"></style></defs><path d="M983.899806 785.385782V224.886223h0.180631l-0.180631-4.696419c-0.180632-5.238314-0.722526-10.476627-1.806315-15.714941-2.890104-25.469042-21.675781-44.977245-45.519139-47.686717H122.287529c-11.741048 0-23.482096 1.625684-34.861881 5.238314-30.346093 10.295996-50.757453 40.100194-50.576821 74.058917v534.849885c-0.361263 21.314518 5.780208 42.087141 17.701887 59.789028l0.361263 0.722526 5.418946 3.973893c18.243782 21.856412 44.977245 34.319986 73.517022 34.500618H904.421944c37.751984 0 70.265655-27.094726 79.477862-66.291763l0.180631-0.541894c0.361263-5.96084 0.361263-11.741048-0.180631-17.701888zM390.16405 547.494091l55.453872 49.854295 43.893456 40.100194c5.418945 5.96084 13.005468 9.57347 21.133886 9.57347 7.947786 0 15.534309-3.431999 21.133886-9.57347l101.153642-91.941436 272.753572 263.721997H126.622685L390.16405 547.494091z m120.119951 30.346092L111.449638 216.03528H115.604163c214.409596-0.903158 703.559711-2.890104 793.875463-0.361263l-399.195625 362.166166z m165.458458-69.72376l251.619686-227.956959v474.518963L675.742459 508.116423z m-328.568707 0.180631L93.205856 760.278003V278.895043l253.967896 229.402011z" p-id="1471"></path></svg>