<?xml version="1.0" standalone="no"?><!DOCTYPE svg PUBLIC "-//W3C//DTD SVG 1.1//EN" "http://www.w3.org/Graphics/SVG/1.1/DTD/svg11.dtd"><svg t="1660982271052" class="icon" viewBox="0 0 1024 1024" version="1.1" xmlns="http://www.w3.org/2000/svg" p-id="1319" xmlns:xlink="http://www.w3.org/1999/xlink" width="300" height="300"><defs><style type="text/css"></style></defs><path d="M512 249.976471c-99.388235 0-180.705882 81.317647-180.705882 180.705882s81.317647 180.705882 180.705882 180.705882 180.705882-81.317647 180.705882-180.705882-81.317647-180.705882-180.705882-180.705882z m0 301.17647c-66.258824 0-120.470588-54.211765-120.470588-120.470588s54.211765-120.470588 120.470588-120.470588 120.470588 54.211765 120.470588 120.470588-54.211765 120.470588-120.470588 120.470588z" fill="#2c2c2c" p-id="1320"></path><path d="M512 39.152941c-216.847059 0-391.529412 174.682353-391.529412 391.529412 0 349.364706 391.529412 572.235294 391.529412 572.235294s391.529412-222.870588 391.529412-572.235294c0-216.847059-174.682353-391.529412-391.529412-391.529412z m0 891.482353C424.658824 873.411765 180.705882 686.682353 180.705882 430.682353c0-183.717647 147.576471-331.294118 331.294118-331.294118s331.294118 147.576471 331.294118 331.294118c0 256-243.952941 442.729412-331.294118 499.952941z" fill="#2c2c2c" p-id="1321"></path></svg>