<?xml version="1.0" standalone="no"?><!DOCTYPE svg PUBLIC "-//W3C//DTD SVG 1.1//EN" "http://www.w3.org/Graphics/SVG/1.1/DTD/svg11.dtd"><svg t="1660982279472" class="icon" viewBox="0 0 1024 1024" version="1.1" xmlns="http://www.w3.org/2000/svg" p-id="1782" xmlns:xlink="http://www.w3.org/1999/xlink" width="300" height="300"><defs><style type="text/css"></style></defs><path d="M446.272 573.44a509.653333 509.653333 0 0 1-81.92-100.650667c67.786667-30.474667 112.138667-93.461333 112.138667-169.792C476.48 194.592 388.96 106.666667 280.906667 106.666667 170.058667 106.666667 85.333333 188.746667 85.333333 302.997333c0 158.250667 82.56 328.554667 200.618667 439.658667 100.010667 94.122667 258.986667 161.738667 413.461333 174.570667 0.832 0.074667 1.674667 0.106667 2.517334 0.106666h41.162666a30.517333 30.517333 0 0 0 0-61.045333h-39.872c-140.672-11.978667-286.026667-73.930667-375.456-158.090667-106.410667-100.16-181.408-254.837333-181.408-395.2 0-80.106667 56.981333-135.285333 134.549334-135.285333 74.282667 0 134.549333 60.533333 134.549333 135.285333 0 60.309333-40.896 107.989333-103.008 123.349334a30.517333 30.517333 0 0 0-19.786667 43.658666c27.573333 53.312 66.037333 104.426667 111.573334 147.690667 51.264 48.693333 109.941333 86.112 172.053333 108.16a30.506667 30.506667 0 0 0 40.362667-24.064c10.453333-67.093333 61.621333-114.026667 126.442666-114.026667 74.272 0 134.549333 60.544 134.549334 135.285334 0 25.578667-7.04 50.026667-20.149334 71.253333a30.528 30.528 0 0 0 51.925334 32.074667A196.096 196.096 0 0 0 938.666667 723.050667c0-108.394667-87.530667-196.330667-195.573334-196.330667-83.072 0-151.210667 52.384-177.621333 128.864-42.368-19.552-82.773333-47.541333-119.2-82.144z" p-id="1783"></path></svg>