<?xml version="1.0" standalone="no"?><!DOCTYPE svg PUBLIC "-//W3C//DTD SVG 1.1//EN" "http://www.w3.org/Graphics/SVG/1.1/DTD/svg11.dtd"><svg t="1660982276437" class="icon" viewBox="0 0 1061 1024" version="1.1" xmlns="http://www.w3.org/2000/svg" p-id="1620" xmlns:xlink="http://www.w3.org/1999/xlink" width="310.83984375" height="300"><defs><style type="text/css"></style></defs><path d="M516.8 335.093c25.44 0 42.72-17.28 42.72-42.72 0-25.92-17.28-42.72-42.72-42.72-25.44 0-51.36 16.8-51.36 42.72 0 25.44 25.92 42.72 51.36 42.72z m-239.04-85.44c-25.44 0-51.36 16.8-51.36 42.72 0 25.44 25.92 42.72 51.36 42.72 25.44 0 42.72-17.28 42.72-42.72 0-25.92-16.8-42.72-42.72-42.72z m749.76 358.56c0-134.88-125.28-250.08-278.88-262.08 0-1.44 0.48-3.36 0-5.28-31.2-143.52-185.76-252-360-252C192.32 88.853 32 226.133 32 394.613c0 90.72 46.08 172.32 133.92 236.64l-30.72 91.68c-1.92 5.76 0 12.48 4.8 16.8 2.88 2.4 6.72 3.84 10.08 3.84 2.4 0 4.8-0.48 6.72-1.44l114.72-57.12 13.92 2.88c35.04 7.2 65.76 13.44 103.2 13.44 11.04 0 41.28-3.84 44.16-7.2 41.28 103.2 155.04 178.08 288.96 178.08 34.08 0 69.12-8.16 100.32-15.84l88.32 48.48c2.4 1.44 4.8 1.92 7.68 1.92 3.36 0 7.2-0.96 9.6-3.36 4.8-3.84 6.72-10.56 5.28-16.32l-22.56-74.88c75.36-61.44 117.12-132.96 117.12-204z m-609.12 50.88c-9.6 0.96-19.68 1.44-29.28 1.44-33.12 0-60.96-5.76-93.6-12.48l-18.72-3.84c-3.36-0.48-6.72-0.48-9.6 1.44l-83.04 41.28 21.6-64.8c1.92-6.24 0-13.44-5.76-17.28-83.04-57.6-125.28-128.16-125.28-209.76 0-145.92 141.12-264.96 314.4-264.96 153.12 0 288.96 93.12 316.8 216.96-160.8 1.92-290.4 115.2-290.4 253.44 0 20.16 2.88 39.84 8.16 58.56h-5.28z m456.48 124.32c-4.8 3.84-7.2 10.08-5.28 15.84l13.92 46.56-57.6-31.2c-2.4-1.44-4.8-1.92-7.2-1.92-1.44 0-2.4 0-3.84 0.48-30.72 7.68-62.88 15.84-93.6 15.84-144 0-261.12-98.88-261.12-220.8s117.12-220.8 261.12-220.8c141.12 0 260.64 101.28 260.64 220.8 0.96 60.96-37.44 123.36-107.04 175.2z m-247.2-286.08c-17.28 0-34.08 17.28-34.08 34.08 0 17.28 17.28 34.08 34.08 34.08 25.44 0 42.72-16.8 42.72-34.08 0-17.28-16.8-34.08-42.72-34.08z m187.68 0c-16.8 0-34.08 17.28-34.08 34.08 0 17.28 17.28 34.08 34.08 34.08 25.44 0 42.72-16.8 42.72-34.08 0-17.28-17.28-34.08-42.72-34.08z" p-id="1621"></path></svg>