<?xml version="1.0" standalone="no"?><!DOCTYPE svg PUBLIC "-//W3C//DTD SVG 1.1//EN" "http://www.w3.org/Graphics/SVG/1.1/DTD/svg11.dtd"><svg t="1660982282521" class="icon" viewBox="0 0 1024 1024" version="1.1" xmlns="http://www.w3.org/2000/svg" p-id="1932" xmlns:xlink="http://www.w3.org/1999/xlink" width="300" height="300"><defs><style type="text/css"></style></defs><path d="M118.310538 88.086022c122.588215 0 222.114409 31.991742 297.136172 96.597333C474.618495 235.630108 511.603613 288.145892 530.883441 342.704172l1.475441 4.255656c23.359312-53.468215 51.56886-98.612301 84.733247-135.377204 65.954409-73.122409 161.687398-98.700387 283.003871-78.011183a32.878108 32.878108 0 0 1 17.672258 9.061849l0.941419 0.616602a32.944172 32.944172 0 0 1 14.192861 22.186667c18.305376 114.209032-7.635957 213.641634-77.658839 295.611183-66.218667 77.515699-169.796817 106.963957-307.552344 90.596473v30.802581c0.027527 0.699183 0.027527 1.403871 0 2.114064V902.88172a33.032258 33.032258 0 0 1-66.048 1.23871l-0.022022-1.23871v-290.584774l-6.788129-1.029505c-9.931699-1.552516-19.659699-3.193118-29.178494-4.932817l-9.452732-1.767226-8.896688-1.745204c-25.027441-5.026409-48.535398-10.729978-70.51286-17.121721l-7.691011-2.290236c-86.472946-26.238624-148.513032-63.609118-185.955096-113.063914-32.316559-42.683183-54.349075-99.173849-66.521463-169.477506l-1.288258-7.724043-1.211183-7.83415c-2.537978-17.094194-4.530925-34.95914-5.973333-53.594839l-0.627613-8.659957c-2.064516-30.488774-2.714151-62.998022-1.970925-97.522237a33.032258 33.032258 0 0 1 31.496258-37.425548l1.266237-0.022021z m33.021247 66.950881v3.473893c0.022022 2.972903 0.049548 5.91828 0.088086 8.847139l0.154151 8.726022c0.154151 7.223054 0.385376 14.319484 0.688172 21.300301l0.401892 8.313118 0.467957 8.197506c0.423914 6.777118 0.919398 13.433118 1.486452 19.973505l0.715699 7.784602c0.374366 3.859269 0.776258 7.68 1.205677 11.451183l0.886366 7.487312c0.770753 6.193548 1.618581 12.265978 2.532473 18.211785l1.128602 7.074408c10.31157 61.996043 28.694022 110.201118 54.734451 144.593205 24.465892 32.316559 65.970925 59.347957 124.625205 80.505118l6.463312 2.284731c13.069763 4.525419 26.954323 8.770065 41.659182 12.722925l7.415742 1.954409c6.243097 1.613075 12.623828 3.171097 19.147699 4.679569l7.89471 1.783742 8.037849 1.739699c5.395269 1.139613 10.889634 2.251699 16.472086 3.325248l8.439742 1.596559c2.835269 0.517505 5.698065 1.029505 8.577377 1.541505l8.71501 1.486452c2.763699 0.462452 5.543914 0.919398 8.346151 1.365333l0.011011-93.99329-0.066065-6.628473c-0.495484-32.344086-3.479398-53.275527-12.965161-80.119742-15.332473-43.382366-45.590022-86.346323-96.256-129.970925-55.653849-47.924301-128.979957-74.636387-221.007828-79.706839zM666.150538 255.823828c-48.243613 53.484731-85.515011 130.11957-111.291183 230.152258 2.504946 0.302796 4.993376 0.589075 7.46529 0.853333l7.371699 0.754237c109.810237 10.53729 187.325935-13.267957 235.316301-69.444817 53.099355-62.155699 74.840086-135.520344 65.359828-222.235527-90.976344-11.764989-157.894194 8.566366-204.221935 59.920516z" fill="#3A3A3A" p-id="1933"></path></svg>